<svg width="128" height="128" viewBox="0 0 128 128" fill="none" xmlns="http://www.w3.org/2000/svg">
<rect width="128" height="128" fill="#660000"/>
<path fill-rule="evenodd" clip-rule="evenodd" d="M48.4962 82.0741C51.2182 78.8741 49.5021 72.9482 48.4962 71.526C47.4902 70.1037 43.3594 70.8058 40.7443 67.9111C38.8513 65.8157 37.3713 61.5704 36.3062 60.8C35.2411 60.0296 25.7677 59.1022 20.5066 54.5186C14.5891 49.363 3.16842 21.8074 4.35192 21.4519C5.53543 21.0963 13.1929 24.0601 20.5066 27.4371C26.576 30.2395 31.3211 33.3031 32.0456 33.0074C33.6434 32.3556 36.2132 24.7527 40.2709 20.0297C44.9611 14.5704 49.6205 10.8445 52.7568 9.42225C55.893 8.00003 60.3949 7.58521 63.9999 7.58521C67.605 7.58521 72.1069 8.00003 75.2431 9.42225C78.3794 10.8445 83.0387 14.5704 87.729 20.0297C91.7867 24.7527 94.3565 32.3556 95.9542 33.0074C96.6788 33.3031 101.424 30.2395 107.493 27.4371C114.807 24.0601 122.464 21.0963 123.648 21.4519C124.831 21.8074 113.411 49.363 107.493 54.5186C102.232 59.1022 92.7588 60.0296 91.6937 60.8C90.6286 61.5704 89.1486 65.8157 87.2555 67.9111C84.6405 70.8058 80.5097 70.1037 79.5037 71.526C78.4977 72.9482 76.7816 78.8741 79.5037 82.0741C80.8107 83.6105 92.167 88.2371 94.4157 89.4815C96.6643 90.726 102.108 92.9778 105.422 96.5334C108.736 100.089 110.613 102.489 111.34 107.556C111.34 111.941 111.931 115.97 110.807 120.296H17.1928C16.0685 115.97 16.6602 111.941 16.6602 107.556C17.3871 102.489 19.2639 100.089 22.5777 96.5334C25.8915 92.9778 31.3356 90.726 33.5842 89.4815C35.8328 88.2371 47.1892 83.6105 48.4962 82.0741ZM49.9164 50.3704C52.5309 50.3704 54.6503 48.2479 54.6503 45.6296C54.6503 43.0114 52.5309 40.8889 49.9164 40.8889C47.3019 40.8889 45.1824 43.0114 45.1824 45.6296C45.1824 48.2479 47.3019 50.3704 49.9164 50.3704ZM55.4196 59.0222C58.7488 59.5698 60.6862 60.2074 63.9999 60.0296C67.3137 60.2074 69.2511 59.5698 72.5803 59.0222C75.7019 58.5088 79.9771 56.8296 80.5097 57.363C81.0422 57.8963 78.032 61.9402 75.4206 63.9408C73.3686 65.5128 71.7954 65.9589 69.2665 66.4889C67.2308 66.9156 63.9999 66.9037 63.9999 66.9037C63.9999 66.9037 60.7691 66.9156 58.7334 66.4889C56.2045 65.9589 54.6313 65.5128 52.5792 63.9408C49.9679 61.9402 46.9576 57.8963 47.4902 57.363C48.0228 56.8296 52.2979 58.5088 55.4196 59.0222ZM78.0835 50.3704C75.469 50.3704 73.3495 48.2479 73.3495 45.6296C73.3495 43.0114 75.469 40.8889 78.0835 40.8889C80.698 40.8889 82.8175 43.0114 82.8175 45.6296C82.8175 48.2479 80.698 50.3704 78.0835 50.3704Z" fill="#D9D9D9"/>
<path fill-rule="evenodd" clip-rule="evenodd" d="M48.4962 82.0741C51.2182 78.8741 49.5021 72.9482 48.4962 71.526C47.4902 70.1037 43.3594 70.8058 40.7443 67.9111C38.8513 65.8157 37.3713 61.5704 36.3062 60.8C35.2411 60.0296 25.7677 59.1022 20.5066 54.5186C14.5891 49.363 3.16842 21.8074 4.35192 21.4519C5.53543 21.0963 13.1929 24.0601 20.5066 27.4371C26.576 30.2395 31.3211 33.3031 32.0456 33.0074C33.6434 32.3556 36.2132 24.7527 40.2709 20.0297C44.9611 14.5704 49.6205 10.8445 52.7568 9.42225C55.893 8.00003 60.3949 7.58521 63.9999 7.58521C67.605 7.58521 72.1069 8.00003 75.2431 9.42225C78.3794 10.8445 83.0387 14.5704 87.729 20.0297C91.7867 24.7527 94.3565 32.3556 95.9542 33.0074C96.6788 33.3031 101.424 30.2395 107.493 27.4371C114.807 24.0601 122.464 21.0963 123.648 21.4519C124.831 21.8074 113.411 49.363 107.493 54.5186C102.232 59.1022 92.7588 60.0296 91.6937 60.8C90.6286 61.5704 89.1486 65.8157 87.2555 67.9111C84.6405 70.8058 80.5097 70.1037 79.5037 71.526C78.4977 72.9482 76.7816 78.8741 79.5037 82.0741C80.8107 83.6105 92.167 88.2371 94.4157 89.4815C96.6643 90.726 102.108 92.9778 105.422 96.5334C108.736 100.089 110.613 102.489 111.34 107.556C111.34 111.941 111.931 115.97 110.807 120.296H17.1928C16.0685 115.97 16.6602 111.941 16.6602 107.556C17.3871 102.489 19.2639 100.089 22.5777 96.5334C25.8915 92.9778 31.3356 90.726 33.5842 89.4815C35.8328 88.2371 47.1892 83.6105 48.4962 82.0741ZM49.9164 50.3704C52.5309 50.3704 54.6503 48.2479 54.6503 45.6296C54.6503 43.0114 52.5309 40.8889 49.9164 40.8889C47.3019 40.8889 45.1824 43.0114 45.1824 45.6296C45.1824 48.2479 47.3019 50.3704 49.9164 50.3704ZM55.4196 59.0222C58.7488 59.5698 60.6862 60.2074 63.9999 60.0296C67.3137 60.2074 69.2511 59.5698 72.5803 59.0222C75.7019 58.5088 79.9771 56.8296 80.5097 57.363C81.0422 57.8963 78.032 61.9402 75.4206 63.9408C73.3686 65.5128 71.7954 65.9589 69.2665 66.4889C67.2308 66.9156 63.9999 66.9037 63.9999 66.9037C63.9999 66.9037 60.7691 66.9156 58.7334 66.4889C56.2045 65.9589 54.6313 65.5128 52.5792 63.9408C49.9679 61.9402 46.9576 57.8963 47.4902 57.363C48.0228 56.8296 52.2979 58.5088 55.4196 59.0222ZM78.0835 50.3704C75.469 50.3704 73.3495 48.2479 73.3495 45.6296C73.3495 43.0114 75.469 40.8889 78.0835 40.8889C80.698 40.8889 82.8175 43.0114 82.8175 45.6296C82.8175 48.2479 80.698 50.3704 78.0835 50.3704Z" stroke="black" stroke-width="0.118519"/>
</svg>
