<svg width="514" height="144" viewBox="0 0 514 144" fill="none" xmlns="http://www.w3.org/2000/svg">
    <circle cx="72" cy="72" r="70" fill="#EB57C6" />
    <circle cx="502" cy="132" r="10" fill="#EB57C6" />
    <rect x="72" y="122" width="430" height="20" fill="#EB57C6" />
    <path
        d="M122 72C122 99.6142 99.6142 122 72 122C44.3858 122 22 99.6142 22 72C22 44.3858 44.3858 22 72 22C99.6142 22 122 44.3858 122 72Z"
        fill="#D9D9D9" />
    <path
        d="M114.426 114.426C124.242 104.611 130.35 91.6955 131.711 77.881C133.072 64.0666 129.6 50.2077 121.888 38.6658C114.176 27.1239 102.701 18.6131 89.4171 14.5836C76.1335 10.5541 61.8637 11.2551 49.039 16.5672C36.2144 21.8794 25.6284 31.474 19.0848 43.7162C12.5412 55.9584 10.4449 70.0908 13.153 83.7054C15.8611 97.32 23.2061 109.574 33.9365 118.381C44.6668 127.187 58.1187 132 72 132H501.5"
        stroke="#C71515" stroke-width="16" stroke-linecap="round" />
</svg>