<svg width="128" height="128" viewBox="0 0 128 128" fill="none" xmlns="http://www.w3.org/2000/svg">
<rect width="128" height="128" fill="#16722A"/>
<path d="M54.5481 17.6882C54.1071 17.2475 53.5092 17 52.8858 17C52.2624 17 51.6645 17.2475 51.2235 17.6882L9.66599 59.2457C9.34502 59.5767 9.128 59.9945 9.04172 60.4474C8.95543 60.9004 9.00364 61.3687 9.18042 61.7946C9.35719 62.2204 9.65479 62.5852 10.0365 62.8439C10.4182 63.1026 10.8672 63.2439 11.3283 63.2503H24.5511V108.123C24.5511 108.747 24.7989 109.345 25.24 109.786C25.681 110.227 26.2792 110.475 26.9029 110.475H59.96C60.2689 110.477 60.5752 110.419 60.8614 110.303C61.1477 110.187 61.4084 110.016 61.6285 109.799C61.8487 109.583 62.024 109.325 62.1445 109.04C62.2649 108.756 62.3282 108.451 62.3307 108.142V56.8561C62.331 56.2325 62.579 55.6346 63.0202 55.1938L76.498 39.6381L54.5481 17.6882ZM52.8858 91.585H43.4409V82.1401H52.8858V91.585ZM52.8858 72.6952H43.4409V63.2503H52.8858V72.6952ZM116.639 34.9156H111.916C111.29 34.9156 110.69 35.1644 110.247 35.6072C109.804 36.05 109.555 36.6506 109.555 37.2769V53.8054L97.0501 36.5779C96.6091 36.1373 96.0112 35.8898 95.3878 35.8898C94.7644 35.8898 94.1665 36.1373 93.7255 36.5779L72.3045 62.608C71.963 63.0232 71.7761 63.5439 71.7756 64.0815V108.095C71.7718 108.403 71.829 108.71 71.9437 108.997C72.0584 109.284 72.2285 109.545 72.4443 109.766C72.6601 109.987 72.9172 110.163 73.2012 110.285C73.4851 110.407 73.7902 110.471 74.099 110.475H88.2663C88.5801 110.476 88.8911 110.415 89.1815 110.296C89.4719 110.178 89.736 110.003 89.9588 109.782C90.1816 109.561 90.3586 109.298 90.4798 109.008C90.6011 108.719 90.6641 108.408 90.6653 108.095V91.585H100.11V108.085C100.11 108.719 100.362 109.327 100.81 109.775C101.258 110.223 101.866 110.475 102.5 110.475H116.667C117.287 110.467 117.879 110.217 118.315 109.777C118.752 109.337 118.998 108.743 119 108.123V37.2769C119 36.6506 118.751 36.05 118.308 35.6072C117.866 35.1644 117.265 34.9156 116.639 34.9156ZM90.6653 82.1401H81.2205V72.6952H90.6653V82.1401ZM109.555 82.1401H100.11V72.6952H109.555V82.1401Z" fill="#D9D9D9"/>
</svg>
